<svg xmlns="http://www.w3.org/2000/svg" xmlns:xlink="http://www.w3.org/1999/xlink" version="1.1" x="0px" y="0px" viewBox="-375 377 48 60" enable-background="new -375 377 48 48" xml:space="preserve"><path d="M-366.46,403.13h6.8v-1.21c0-1.15,0.83-2.1,1.84-2.1s1.84,0.95,1.84,2.1v1.21h9.98v-1.21c0-1.15,0.83-2.1,1.84-2.1  c1.01,0,1.84,0.95,1.84,2.1v1.21h6.8c2.12,0,3.85-1.77,3.85-3.94v-17.75c0-2.17-1.72-3.94-3.85-3.94h-30.94  c-2.13,0-3.85,1.77-3.85,3.94v17.75C-370.31,401.36-368.59,403.13-366.46,403.13z M-355.77,392.23c0.79-0.21,1.82-0.58,2.28-0.82  c0.46-0.24,0.84-0.51,0.84-0.6s-0.54-1.03-0.67-1.47s-0.23-0.8-0.23-0.8s-0.32-0.17-0.36-0.43c-0.05-0.27-0.09-0.55-0.09-0.58  c0-0.03-0.01-0.61,0.06-0.87c0.06-0.26,0.19-1.09,0.29-1.85c0,0,0,0,0.34-0.55c0.45-0.73,1.2-1.23,2.31-1.23  c1.94,0,2.44,1.71,2.44,1.71c0.23,0.79,0.7,1.76,0.67,2.1c-0.03,0.33-0.05,0.66-0.05,0.73c0,0,0,0-0.01,0.06  c-0.06,0.53-0.14,0.92-0.43,0.89c-0.04,0-0.04,0-0.04,0c-0.04-0.02-0.12,0.16-0.18,0.39c0,0,0,0-0.06,0.2  c-0.19,0.63-0.19,0.63-0.19,0.63c-0.33,0.52-0.59,1-0.59,1.08s0.4,0.34,0.88,0.58c0.49,0.24,2.8,1.31,3.14,1.83  c0.34,0.51,0.62,1.02,0.62,1.14s-0.08,0.58-0.17,1.03c-0.09,0.45-0.85,0.82-1.67,0.82h-8.74c-0.83,0-1.58-0.37-1.67-0.82  c-0.09-0.45-0.17-0.92-0.17-1.03C-357.21,394.25-356.57,392.44-355.77,392.23z M-335.72,422.45h-30.56c-1.19,0-2.24-0.26-2.88-0.66  l-0.15,1.16c0,0.86,1.53,1.55,3.43,1.55h29.77c1.89,0,3.43-0.7,3.43-1.55l-0.15-1.16C-333.48,422.19-334.53,422.45-335.72,422.45z   M-334.93,418.35h-32.14c-1.28,0-2.41-0.27-3.08-0.68l-0.16,1.17c0,0.86,1.63,1.55,3.64,1.55h31.34c2.01,0,3.64-0.7,3.64-1.55  l-0.16-1.17C-332.52,418.08-333.65,418.35-334.93,418.35z M-331.69,407.75c0-0.85-1.72-1.55-3.85-1.55h-6.8v1.18  c0,1.15-0.83,2.1-1.84,2.1s-1.84-0.95-1.84-2.1v-1.18H-356v1.18c0,1.15-0.83,2.1-1.84,2.1c-1.01,0-1.84-0.95-1.84-2.1v-1.18h-6.8  c-2.13,0-3.85,0.7-3.85,1.55l-1,6.99c0,0.86,1.72,1.55,3.85,1.55h32.93c2.12,0,3.85-0.7,3.85-1.55L-331.69,407.75z"/></svg>